<?xml version="1.0" encoding="UTF-8"?>
<svg version="1.1" xmlns="http://www.w3.org/2000/svg" width="126" height="44" >
<path fill="#231F20" d="M29.981,14.12c2.531-2.78,5.502-6.748,1.92-9.753c-3.43-2.877-8.547,3.118-10.518,5.094 c-4.176,4.185-7.897,8.837-11.694,13.36c-1.456,1.733-2.933,3.444-4.48,5.096c-0.432,0.422-0.865,0.844-1.297,1.267 c-0.349,0.634-0.767,0.723-1.254,0.266c2.658-1.64,3.585,0.309,4.517,1.675c3.479,5.097,9.101,8.836,15.378,6.147 c4.892-2.096,12.298-7.526,9.349-13.806c-1.258-2.678-4.806-3.191-6.01-0.336c-1.06,2.516-0.146,6.708,2.46,7.961 c5.065,2.437,10.63-3.46,13.629-6.72c-0.58-0.142-1.16-0.284-1.74-0.426c-0.939,1.74-4.49,8.422-1.095,9.597 c2.235,0.773,5.125-3.353,6.246-4.631c4.229-4.822,7.971-10.107,11.62-15.372c2.769-3.996,5.956-8.201,7.833-12.721 c0.426-1.025-1.293-0.984-1.74-0.426c-5.43,6.774-11.165,14.59-13.502,23.045c-0.732,2.648-0.47,8.698,3.509,8.424 c4.634-0.318,3.369-7.104,2.272-9.675c-0.354-0.83-1.796-0.499-1.946,0.326c-0.29,1.596,0.414,3.396,2.341,3.057 c1.764-0.31,3.253-1.321,4.884-2.022c4.703-2.02,0.196,6.145-0.421,7.275c-0.533,0.975,1.431,1.021,1.854,0.247 c0.892-1.634,5.183-8.18,1.429-9.35c-0.977-0.304-2.198,0.064-3.107,0.406c-1.328,0.5-5.554,3.203-5.019,0.253 c-0.649,0.108-1.298,0.217-1.946,0.326c0.914,2.143,1.488,4.17,0.744,6.493c-1.963,0.128-2.942-0.625-2.938-2.261 c-0.211-0.894-0.019-1.902,0.12-2.791c0.558-3.576,2.614-7.051,4.382-10.145c2.602-4.553,5.691-8.91,8.971-13.003 c-0.58-0.142-1.16-0.284-1.74-0.426c-3.016,7.262-8.594,13.972-13.255,20.228c-2.488,3.339-5.057,6.662-7.945,9.668 c-3.951,4.113-0.697-4.421,0.304-6.274c0.54-1-1.295-0.91-1.74-0.426c-2.511,2.728-10.121,10.376-12.546,3.594 c-0.445-1.245-0.452-2.724-0.063-3.982c0.615-1.992,2.55,1.334,2.73,1.961c0.533,1.852-0.529,3.95-1.483,5.428 c-2.676,4.147-8.68,6.865-13.421,5.424c-2.884-0.876-4.973-3.579-6.632-5.93c-2.015-2.854-4.732-3.49-7.832-1.578 c-1.485,0.916-1.663,3.439,0.616,3.22c3.583-0.344,6.519-4.874,8.605-7.31c5.354-6.25,10.373-13.352,16.961-18.376 c1.718-1.31,2.776-1.214,4.119,0.284c1.651,1.843-1.883,5.726-3.056,7.015C27.527,14.424,29.374,14.787,29.981,14.12 L29.981,14.12z"/>
<path fill="#231F20" d="M64.587,24.322c1.853-0.398,5.55-1.484,4.984-4.047c-0.119-0.541-1.033-0.486-1.385-0.28 c-1.375,0.804-1.154,3.768-1.386,5.121c-0.199,1.166-2.138,4.274-1.5,5.388c1.963,3.43,10.125-5.827,10.92-6.674 c-0.574-0.119-1.147-0.238-1.722-0.357c-0.993,2.723-3.267,9.969,2.004,8.862c2.338-0.491,4.398-2.667,6.065-4.215 c4.633-4.303,8.503-9.499,12.278-14.54c-0.59-0.001-1.18-0.002-1.769-0.004c1.942,7.834-4.719,15.56-10.167,20.078 c0.517,0.169,1.034,0.339,1.552,0.508c1.013-1.471,3.521-5.543,4.205-2.178c0.545,2.681,1.845,5.146,3.583,7.234 c4.734,5.687,13.106,5.252,19.553,3.544c5.721-1.516,11.835-5.604,13.489-11.56c1.704-6.139-6.581-9.711-11.282-10.311 c-0.913-0.116-1.987,1.184-0.684,1.35c3.396,0.433,6.672,1.919,8.949,4.51c2.755,3.133,0.335,7.138-1.932,9.619 c-6.405,7.012-20.438,9.08-26.899,1.318c-1.475-1.771-2.31-4.011-2.846-6.223c-0.264-1.087-0.238-2.691-1.689-2.842 c-2.693-0.279-5.016,3.502-6.285,5.348c-0.563,0.817,1.159,0.834,1.552,0.508c5.852-4.852,12.915-13.024,10.833-21.422 c-0.177-0.712-1.451-0.427-1.769-0.004c-4.164,5.563-8.457,11.238-13.71,15.834c-1.507,1.319-4.518,3.74-4.446,0.015 c0.033-1.744,0.663-3.622,1.254-5.242c0.375-1.029-1.286-0.822-1.722-0.357c-1.873,1.997-3.777,3.934-5.993,5.553 c-2.068,1.511-0.976,0.093-0.585-0.92c0.485-1.261,0.662-2.669,0.888-3.993c0.12-0.698,0.878-3.326,0.1-2.871 c-0.462-0.093-0.924-0.187-1.386-0.28c0.324,1.468-2.487,2.075-3.391,2.27C63.04,23.323,63.396,24.579,64.587,24.322 L64.587,24.322z"/>
<path fill="#231F20" d="M80.582,3.398c1.887-0.279,4.6-0.005,4.357,2.493c-0.097,0.997,1.872,0.725,1.957-0.147 c0.334-3.439-3.468-4.152-6.143-3.757c-0.425,0.063-1.004,0.276-1.064,0.78C79.633,3.232,80.201,3.455,80.582,3.398L80.582,3.398 z"/>
</svg>